<?xml version="1.0" encoding="utf-8"?>
<!-- Generator: Adobe Illustrator 13.0.0, SVG Export Plug-In . SVG Version: 6.00 Build 14948)  -->
<!DOCTYPE svg PUBLIC "-//W3C//DTD SVG 1.0//EN" "http://www.w3.org/TR/2001/REC-SVG-20010904/DTD/svg10.dtd">
<svg version="1.0"
	 id="svg2" xmlns:svg="http://www.w3.org/2000/svg" xmlns:dc="http://purl.org/dc/elements/1.1/" xmlns:cc="http://creativecommons.org/ns#" xmlns:inkscape="http://www.inkscape.org/namespaces/inkscape" xmlns:rdf="http://www.w3.org/1999/02/22-rdf-syntax-ns#" inkscape:version="0.46" xmlns:sodipodi="http://sodipodi.sourceforge.net/DTD/sodipodi-0.dtd" inkscape:output_extension="org.inkscape.output.svg.inkscape"
	 xmlns="http://www.w3.org/2000/svg" xmlns:xlink="http://www.w3.org/1999/xlink" x="0px" y="0px" width="194.664px"
	 height="229.355px" viewBox="0 0 194.664 229.355" enable-background="new 0 0 194.664 229.355" xml:space="preserve">

	<defs>

		<g id="beetle">

			<g id="gradients">
				<linearGradient id="path3582_1_" gradientUnits="userSpaceOnUse" x1="24.3445" y1="-125.5171" x2="25.8048" y2="-123.0893" gradientTransform="matrix(1 0 0 -1 51.3042 21.5547)">
					<stop  offset="0" style="stop-color:#696250"/>
					<stop  offset="1" style="stop-color:#000000"/>
				</linearGradient>
				<linearGradient id="path3582_2_" gradientUnits="userSpaceOnUse" x1="-222.2859" y1="103.0669" x2="-227.5591" y2="117.0872">
					<stop  offset="0" style="stop-color:#000000"/>
					<stop  offset="1" style="stop-color:#000000"/>
				</linearGradient>
				<linearGradient id="path3570_1_" gradientUnits="userSpaceOnUse" x1="26.0139" y1="-117.0635" x2="26.0096" y2="-114.9756" gradientTransform="matrix(1 0 0 -1 51.3042 21.5547)">
					<stop  offset="0" style="stop-color:#696250"/>
					<stop  offset="1" style="stop-color:#000000"/>
				</linearGradient>
				<linearGradient id="path3550_1_" gradientUnits="userSpaceOnUse" x1="24.5559" y1="-111.4712" x2="29.2854" y2="-109.6754" gradientTransform="matrix(1 0 0 -1 51.3042 21.5547)">
					<stop  offset="0" style="stop-color:#696250"/>
					<stop  offset="1" style="stop-color:#000000"/>
				</linearGradient>
				<linearGradient id="path2508_1_" gradientUnits="userSpaceOnUse" x1="209.7947" y1="641.7383" x2="208.4084" y2="639.1985" gradientTransform="matrix(-0.2791 0.4595 0.8604 0.4593 -372.3374 -278.0845)">
					<stop  offset="0" style="stop-color:#806D5F"/>
					<stop  offset="0.7377" style="stop-color:#40362F"/>
					<stop  offset="1" style="stop-color:#000000"/>
				</linearGradient>
				<linearGradient id="path2510_1_" gradientUnits="userSpaceOnUse" x1="25.5452" y1="708.1318" x2="27.664" y2="708.98" gradientTransform="matrix(-0.3347 0.2915 0.5793 0.6882 -279.2056 -381.582)">
					<stop  offset="0" style="stop-color:#806D5F"/>
					<stop  offset="0.7377" style="stop-color:#40362F"/>
					<stop  offset="1" style="stop-color:#000000"/>
				</linearGradient>
				<linearGradient id="path2512_1_" gradientUnits="userSpaceOnUse" x1="35.2942" y1="709.2471" x2="38.0247" y2="710.2504" gradientTransform="matrix(-0.332 0.3609 0.5773 0.6257 -273.9005 -342.1201)">
					<stop  offset="0" style="stop-color:#806D5F"/>
					<stop  offset="0.7377" style="stop-color:#40362F"/>
					<stop  offset="1" style="stop-color:#000000"/>
				</linearGradient>
				<linearGradient id="path2514_1_" gradientUnits="userSpaceOnUse" x1="-53.677" y1="720.4307" x2="-52.2823" y2="723.1824" gradientTransform="matrix(-0.3778 0.3127 0.4873 0.698 -247.3586 -371.051)">
					<stop  offset="0" style="stop-color:#806D5F"/>
					<stop  offset="0.7377" style="stop-color:#40362F"/>
					<stop  offset="1" style="stop-color:#000000"/>
				</linearGradient>
				<linearGradient id="path2516_1_" gradientUnits="userSpaceOnUse" x1="76.1042" y1="-96.9082" x2="73.766" y2="-98.9766" gradientTransform="matrix(1 0 0 -1 51.3042 21.5547)">
					<stop  offset="0" style="stop-color:#806D5F"/>
					<stop  offset="0.7377" style="stop-color:#40362F"/>
					<stop  offset="1" style="stop-color:#000000"/>
				</linearGradient>
				<linearGradient id="path2518_1_" gradientUnits="userSpaceOnUse" x1="68.1902" y1="-83.5278" x2="62.9148" y2="-90.1286" gradientTransform="matrix(1 0 0 -1 51.3042 21.5547)">
					<stop  offset="0" style="stop-color:#806D5F"/>
					<stop  offset="0.7377" style="stop-color:#40362F"/>
					<stop  offset="1" style="stop-color:#000000"/>
				</linearGradient>
				<linearGradient id="path3823_1_" gradientUnits="userSpaceOnUse" x1="561.4744" y1="289.3135" x2="564.2419" y2="289.2459" gradientTransform="matrix(0.2791 0.4595 -0.8604 0.4593 165.4912 -279.7139)">
					<stop  offset="0" style="stop-color:#625745"/>
					<stop  offset="1" style="stop-color:#000000"/>
				</linearGradient>
				<linearGradient id="path3825_1_" gradientUnits="userSpaceOnUse" x1="719.283" y1="416.6709" x2="721.8447" y2="418.1411" gradientTransform="matrix(0.3347 0.2915 -0.5793 0.6882 73.0664 -383.918)">
					<stop  offset="0" style="stop-color:#625745"/>
					<stop  offset="1" style="stop-color:#000000"/>
				</linearGradient>
				<linearGradient id="path3827_1_" gradientUnits="userSpaceOnUse" x1="643.3015" y1="363.3535" x2="645.3887" y2="364.5223" gradientTransform="matrix(0.332 0.3609 -0.5773 0.6257 67.2311 -345.3408)">
					<stop  offset="0" style="stop-color:#625745"/>
					<stop  offset="1" style="stop-color:#000000"/>
				</linearGradient>
				<linearGradient id="path3829_1_" gradientUnits="userSpaceOnUse" x1="621.8816" y1="422.3535" x2="626.766" y2="425.5729" gradientTransform="matrix(0.3778 0.3127 -0.4873 0.698 40.7771 -374.8898)">
					<stop  offset="0" style="stop-color:#625745"/>
					<stop  offset="1" style="stop-color:#000000"/>
				</linearGradient>
				<linearGradient id="path3831_1_" gradientUnits="userSpaceOnUse" x1="17.2" y1="-96.0684" x2="18.3354" y2="-97.8713" gradientTransform="matrix(1 0 0 -1 51.3042 21.5547)">
					<stop  offset="0" style="stop-color:#625745"/>
					<stop  offset="1" style="stop-color:#000000"/>
				</linearGradient>
				<linearGradient id="path3660_1_" gradientUnits="userSpaceOnUse" x1="60.866" y1="-74.936" x2="62.1317" y2="-77.5885" gradientTransform="matrix(1 0 0 -1 51.3042 21.5547)">
					<stop  offset="0" style="stop-color:#806D5F"/>
					<stop  offset="0.7377" style="stop-color:#40362F"/>
					<stop  offset="1" style="stop-color:#000000"/>
				</linearGradient>
				<linearGradient id="path3662_1_" gradientUnits="userSpaceOnUse" x1="-446.2542" y1="-30.8149" x2="-447.3778" y2="-33.1873" gradientTransform="matrix(0.4419 -0.3061 -0.5989 -0.7698 291.7855 -68.7552)">
					<stop  offset="0" style="stop-color:#806D5F"/>
					<stop  offset="0.7377" style="stop-color:#40362F"/>
					<stop  offset="1" style="stop-color:#000000"/>
				</linearGradient>
				<linearGradient id="path3664_1_" gradientUnits="userSpaceOnUse" x1="-754.6809" y1="8.854" x2="-755.8696" y2="6.828" gradientTransform="matrix(-0.4244 -0.13 0.249 -0.8644 -208.5358 -2.0188)">
					<stop  offset="0" style="stop-color:#806D5F"/>
					<stop  offset="0.6035" style="stop-color:#40362F"/>
					<stop  offset="1" style="stop-color:#000000"/>
				</linearGradient>
				<linearGradient id="path3666_1_" gradientUnits="userSpaceOnUse" x1="-729.4368" y1="21.2651" x2="-730.6154" y2="19.353" gradientTransform="matrix(-0.4501 -0.1945 0.2726 -0.8065 -219.7859 -37.6921)">
					<stop  offset="0" style="stop-color:#806D5F"/>
					<stop  offset="0.7377" style="stop-color:#40362F"/>
					<stop  offset="1" style="stop-color:#000000"/>
				</linearGradient>
				<linearGradient id="path3668_1_" gradientUnits="userSpaceOnUse" x1="-458.3586" y1="-42.9883" x2="-461.5306" y2="-45.3287" gradientTransform="matrix(0.4419 -0.3061 -0.5989 -0.7698 291.7852 -68.7562)">
					<stop  offset="0" style="stop-color:#806D5F"/>
					<stop  offset="0.6035" style="stop-color:#40362F"/>
					<stop  offset="1" style="stop-color:#000000"/>
				</linearGradient>
				<linearGradient id="path3670_1_" gradientUnits="userSpaceOnUse" x1="63.3796" y1="-62.542" x2="64.2972" y2="-64.3423" gradientTransform="matrix(1 0 0 -1 51.3042 21.5547)">
					<stop  offset="0" style="stop-color:#806D5F"/>
					<stop  offset="0.6035" style="stop-color:#40362F"/>
					<stop  offset="1" style="stop-color:#000000"/>
				</linearGradient>
				<linearGradient id="path3521_1_" gradientUnits="userSpaceOnUse" x1="31.3474" y1="-70.0107" x2="29.8575" y2="-78.7195" gradientTransform="matrix(1 0 0 -1 51.3042 21.5547)">
					<stop  offset="0" style="stop-color:#806D5F"/>
					<stop  offset="0.7377" style="stop-color:#40362F"/>
					<stop  offset="1" style="stop-color:#000000"/>
				</linearGradient>
				<radialGradient id="path3385_1_" cx="137.7234" cy="-245.0459" r="1.3874" gradientTransform="matrix(0.6531 0 0 -0.6731 3.0153 -73.1817)" gradientUnits="userSpaceOnUse">
					<stop  offset="0" style="stop-color:#FFFFFF"/>
					<stop  offset="1" style="stop-color:#000000"/>
				</radialGradient>
				<radialGradient id="path3391_1_" cx="-127.1677" cy="-288.5723" r="1.3875" gradientTransform="matrix(0.6086 -0.2575 -0.2743 -0.6482 97.9292 -127.5855)" gradientUnits="userSpaceOnUse">
					<stop  offset="0" style="stop-color:#FFFFFF"/>
					<stop  offset="1" style="stop-color:#000000"/>
				</radialGradient>
				<linearGradient id="path3192_1_" gradientUnits="userSpaceOnUse" x1="43.634" y1="-106.5371" x2="58.3339" y2="-106.5371" gradientTransform="matrix(1 0 0 -1 51.3042 21.5547)">
					<stop  offset="0" style="stop-color:#185D0A"/>
					<stop  offset="1" style="stop-color:#082203"/>
				</linearGradient>
				<linearGradient id="path3194_1_" gradientUnits="userSpaceOnUse" x1="42.0671" y1="-106.8877" x2="29.9245" y2="-106.628" gradientTransform="matrix(1 0 0 -1 51.3042 21.5547)">
					<stop  offset="0" style="stop-color:#185D0A"/>
					<stop  offset="1" style="stop-color:#082203"/>
				</linearGradient>
				<radialGradient id="path3247_1_" cx="-218.2473" cy="41.8745" r="7.0209" gradientTransform="matrix(1.537 -2.2353 -1.9818 -1.3627 512.983 -308.4631)" gradientUnits="userSpaceOnUse">
					<stop  offset="0" style="stop-color:#DC6C17"/>
					<stop  offset="1" style="stop-color:#F1BA35"/>
				</radialGradient>
				<radialGradient id="path3267_1_" cx="-57.6208" cy="68.1875" r="7.2001" gradientTransform="matrix(2.0462 0.018 0.023 -2.6048 213.0429 301.2859)" gradientUnits="userSpaceOnUse">
					<stop  offset="0" style="stop-color:#DC6C17"/>
					<stop  offset="1" style="stop-color:#F1BA35"/>
				</radialGradient>
				<linearGradient id="path3579_1_" gradientUnits="userSpaceOnUse" x1="-491.0286" y1="-9.6094" x2="-492.1519" y2="-11.9809" gradientTransform="matrix(0.4419 -0.3061 -0.5989 -0.7698 291.7853 -68.7562)">
					<stop  offset="0" style="stop-color:#806D5F"/>
					<stop  offset="0.7377" style="stop-color:#40362F"/>
					<stop  offset="1" style="stop-color:#000000"/>
				</linearGradient>
				<linearGradient id="path3591_1_" gradientUnits="userSpaceOnUse" x1="-489.5706" y1="-7.7471" x2="-492.2582" y2="-9.7301" gradientTransform="matrix(0.4419 -0.3061 -0.5989 -0.7698 291.7858 -68.7561)">
					<stop  offset="0" style="stop-color:#806D5F"/>
					<stop  offset="0.6035" style="stop-color:#40362F"/>
					<stop  offset="1" style="stop-color:#000000"/>
				</linearGradient>
				<linearGradient id="path3603_1_" gradientUnits="userSpaceOnUse" x1="-487.5833" y1="-6.4111" x2="-490.9477" y2="-8.0477" gradientTransform="matrix(0.4419 -0.3061 -0.5989 -0.7698 291.7855 -68.7562)">
					<stop  offset="0" style="stop-color:#806D5F"/>
					<stop  offset="0.6035" style="stop-color:#40362F"/>
					<stop  offset="1" style="stop-color:#000000"/>
				</linearGradient>
				<linearGradient id="path3607_1_" gradientUnits="userSpaceOnUse" x1="-486.5139" y1="-4.8198" x2="-489.6859" y2="-7.1603" gradientTransform="matrix(0.4419 -0.3061 -0.5989 -0.7698 291.786 -68.7552)">
					<stop  offset="0" style="stop-color:#806D5F"/>
					<stop  offset="0.6035" style="stop-color:#40362F"/>
					<stop  offset="1" style="stop-color:#000000"/>
				</linearGradient>
				<linearGradient id="path3620_1_" gradientUnits="userSpaceOnUse" x1="27.6292" y1="-59.2437" x2="27.6292" y2="-62.5611" gradientTransform="matrix(1 0 0 -1 51.3042 21.5547)">
					<stop  offset="0" style="stop-color:#806D5F"/>
					<stop  offset="0.6035" style="stop-color:#40362F"/>
					<stop  offset="1" style="stop-color:#000000"/>
				</linearGradient>
				<linearGradient id="path3793_1_" gradientUnits="userSpaceOnUse" x1="25.5286" y1="-86.4155" x2="28.5437" y2="-89.4879" gradientTransform="matrix(1 0 0 -1 51.3042 21.5547)">
					<stop  offset="0" style="stop-color:#625745"/>
					<stop  offset="1" style="stop-color:#000000"/>
				</linearGradient>
				<linearGradient id="path4024_1_" gradientUnits="userSpaceOnUse" x1="-6.6804" y1="-41.3818" x2="-7.426" y2="-39.001" gradientTransform="matrix(1 0 0 -1 123.4448 104.2686)">
					<stop  offset="0" style="stop-color:#BFB1A8"/>
					<stop  offset="0.44" style="stop-color:#40362F"/>
					<stop  offset="1" style="stop-color:#000000"/>
				</linearGradient>
				<linearGradient id="path4024_2_" gradientUnits="userSpaceOnUse" x1="-157.5955" y1="186.2295" x2="-160.0048" y2="198.917">
					<stop  offset="0" style="stop-color:#010101"/>
					<stop  offset="1" style="stop-color:#010101"/>
				</linearGradient>
				<linearGradient id="path4032_1_" gradientUnits="userSpaceOnUse" x1="-8.1584" y1="-36.1904" x2="-7.9456" y2="-32.1214" gradientTransform="matrix(1 0 0 -1 123.4448 104.2686)">
					<stop  offset="0" style="stop-color:#BFB1A8"/>
					<stop  offset="0.7377" style="stop-color:#40362F"/>
					<stop  offset="1" style="stop-color:#000000"/>
				</linearGradient>	
				<linearGradient id="path4036_1_" gradientUnits="userSpaceOnUse" x1="67.2795" y1="-114.5464" x2="58.0079" y2="-106.2875" gradientTransform="matrix(1 0 0 -1 51.3042 21.5547)">
					<stop  offset="0" style="stop-color:#696250"/>
					<stop  offset="1" style="stop-color:#000000"/>
				</linearGradient>
						
		</g>

			<g id="leg1">
				<animateTransform
					attributeName="transform"
					begin="0s"
					dur="1s"
					type="rotate"
					from="20 85.4 100.793"
					to="-20 85.4 100.793"
					repeatCount="indefinite" />
				<path class="leg1" id="path3491" d="
					M89.025,101.801c-0.415,0.88-1.602,1.193-2.651,0.699s-1.563-1.608-1.149-2.488c0.415-0.881,1.603-1.194,2.652-0.701
					c1.03,0.486,1.548,1.574,1.166,2.45"/>
				<path class="leg1" id="path3521" fill="url(#path3521_1_)" stroke="#000000" stroke-width="0.5" d="
					M85.4,100.793l0.9-1.425l-4.65-9.787l0.169,1.5l-0.713-0.038l-1.144-0.225l-2.081-0.507c0.668,0.824,1.717,1.442,1.669,2.457h-0.9
					L85.4,100.793z"/>
				<g>
					<animateTransform
						attributeName="transform"
						begin="0s"
						dur="1s"
						type="rotate"
						from="-20 81.527 89.883"
						to="30 81.527 89.883"
						repeatCount="indefinite" />					
					<path class="leg1" id="path3579" fill="url(#path3579_1_)" d="
						M81.527,89.883c0.445,0.574,0.607,1.178,0.361,1.349c-0.248,0.172-0.81-0.155-1.257-0.729c-0.446-0.573-0.607-1.178-0.36-1.348
						c0.232-0.162,0.747,0.117,1.186,0.642"/>
					<path class="leg1" id="path3591" fill="url(#path3591_1_)" d="
						M80.506,88.308c0.186,0.645,0.144,1.227-0.094,1.299s-0.58-0.392-0.766-1.036s-0.144-1.226,0.094-1.298
						c0.223-0.068,0.543,0.339,0.736,0.938"/>
					<path class="leg1" id="path3607" fill="url(#path3607_1_)" d="
						M80.151,84.771c0.12,0.623,0.003,1.188-0.261,1.262c-0.264,0.074-0.575-0.371-0.695-0.995c-0.12-0.623-0.004-1.188,0.261-1.262
						c0.248-0.069,0.542,0.322,0.676,0.901"/>
					<path class="leg1" id="path3620" fill="url(#path3620_1_)" d="M79.67,84.332
						c-0.101-0.021-0.227-0.094-0.347-0.203c-0.444-0.402-0.798-1.291-0.739-1.859c0.014-0.144-0.803-1.914-0.718-1.863
						c0.665,0.398,0.971,1.371,1.262,1.389c0.629,0.039-0.134-1.902,0.132-1.569c0.561,0.698,0.381,1.611,0.672,2.772
						c0.118,0.476,0.1,1.236-0.07,1.315C79.816,84.334,79.726,84.343,79.67,84.332L79.67,84.332z"/>
					<path class="leg1" id="path3603" fill="url(#path3603_1_)" d="
						M80.394,86.576c-0.056,0.633-0.322,1.145-0.597,1.143s-0.451-0.516-0.396-1.147c0.056-0.633,0.323-1.144,0.597-1.143
						c0.258,0.001,0.434,0.458,0.403,1.052"/>			
				</g>
			</g>

			<g id="leg3">
				<animateTransform
					attributeName="transform"
					begin="0s"
					dur="1s"
					type="rotate"
					from="30 82.662 120.239"
					to="-30 82.662 120.239"
					repeatCount="indefinite" />			
				<path class="leg3" id="path3548" d="
					M82.662,120.239c0.727,0.768,0.216,2.427-1.14,3.708c-1.354,1.278-3.041,1.694-3.767,0.927c-0.725-0.768-0.215-2.429,1.141-3.708
					c1.274-1.205,2.859-1.654,3.646-1.037"/>
				<g>
					<animateTransform
						attributeName="transform"
						begin="0s"
						dur="1s"
						type="rotate"
						from="-30 77.636 123.444l"
						to="40 77.636 123.444l"
						repeatCount="indefinite" />							
					<path class="leg3" id="path3582" fill="url(#path3582_1_)" stroke="url(#path3582_2_)" stroke-width="0.5" d="
						M75.961,144.213c-0.391,0.894-1.233,2.101-1.055,2.643c0.061,0.199,0.374,0.393,0.504,0.507l-0.459-0.229
						c0.046,1.111,0.387,1.785,0.994,1.785c-0.697-0.659-0.56-1.082-0.173-1.436c0.229-0.05,0.486-0.209,0.753-0.521
						c0.233-0.234-0.06-1.797-0.09-2.695L75.961,144.213z"/>
					<path class="leg3" id="path3552" fill="#696250" stroke="#000000" stroke-width="0.5" d="M76.49,141.872l-1.087,2.326l1.537,0.45v-2.625
						L76.49,141.872z"/>
					<path class="leg3" id="path3562" fill="#696250" stroke="#000000" stroke-width="0.5" d="M77.021,139.979l-1.087,2.324l1.537,0.451v-2.625
						L77.021,139.979z"/>
					<path class="leg3" id="path3566" fill="#696250" stroke="#000000" stroke-width="0.5" d="M77.166,138.242l-0.773,2.446l1.583,0.245l-0.345-2.602
						L77.166,138.242z"/>
					<path class="leg3" id="path3570" fill="url(#path3570_1_)" stroke="#000000" stroke-width="0.5" d="M76.793,136.684l-0.273,2.552l1.601-0.073
						l-0.853-2.481L76.793,136.684z"/>
					<path class="leg3" id="path3550" fill="url(#path3550_1_)" stroke="#000000" stroke-width="0.5" d="M77.636,123.444l-1.35,12.976l-0.824,1.875
						l1.574-1.201l1.35,0.226l3.301,2.399l-2.551-3.074v-1.35l0.977,0.899l-0.826-1.8v-0.9l1.125,0.975l-1.049-1.799l-0.15-1.201
						l1.275,1.125l-1.275-2.85v-1.199l0.975-0.076l-1.051-1.125l0.076-2.174L77.636,123.444z"/>
				</g>
			</g>

			<g id="leg5">
				<animateTransform
					attributeName="transform"
					begin="0s"
					dur="1s"
					type="rotate"
					from="-20 108.678 107.491"
					to="20 108.678 107.491"
					repeatCount="indefinite" />				
				<path class="leg5" id="path2506" d="
					M108.678,107.491c0,0.703,0.737,1.273,1.644,1.273c0.908,0,1.645-0.57,1.645-1.273c0-0.702-0.736-1.272-1.645-1.272
					c-0.854,0-1.566,0.507-1.638,1.166"/>
				<path class="leg5" id="path2508" fill="url(#path2508_1_)" d="
					M120.256,112.831c-0.643-0.343-1.033-0.835-0.872-1.099c0.159-0.264,0.81-0.199,1.45,0.144c0.642,0.342,1.033,0.834,0.871,1.098
					c-0.148,0.247-0.738,0.208-1.352-0.093"/>
				<path class="leg5" id="path2510" fill="url(#path2510_1_)" d="
					M121.932,114.213c-0.433-0.513-0.603-1.085-0.381-1.277c0.222-0.193,0.75,0.066,1.183,0.58c0.432,0.513,0.604,1.086,0.382,1.278
					c-0.208,0.181-0.692-0.038-1.116-0.503"/>
				<path class="leg5" id="path2512" fill="url(#path2512_1_)" d="
					M123.246,115.922c-0.43-0.466-0.633-1.004-0.452-1.2s0.677,0.022,1.107,0.489c0.429,0.467,0.633,1.003,0.451,1.199
					c-0.17,0.186-0.621,0.003-1.04-0.419"/>
				<path class="leg5" id="path2514" fill="url(#path2514_1_)" d="
					M124.261,117.236c-0.363-0.52-0.486-1.084-0.275-1.258c0.211-0.175,0.677,0.105,1.04,0.625c0.363,0.521,0.487,1.084,0.275,1.26
					c-0.198,0.164-0.626-0.073-0.983-0.548"/>
				<path class="leg5" id="path2516" fill="url(#path2516_1_)" d="M125.068,117.867
					c-0.094,0.052-0.194,0.16-0.273,0.295c-0.296,0.501-0.348,1.406-0.039,1.852c0.512,0.742,0.856,2.734,0.922,2.662
					c0.521-0.573-0.234-2.149,0.053-2.267c0.623-0.253,0.59,1.308,0.732,0.929c0.301-0.794-0.473-1.322-0.622-2.42
					c-0.062-0.448-0.369-1.094-0.571-1.102C125.217,117.813,125.121,117.838,125.068,117.867L125.068,117.867z"/>
				<path class="leg5" id="path2518" fill="url(#path2518_1_)" stroke="#000000" stroke-width="0.5" d="
					M112.187,106.588c3.199,1.539,5.67,3.367,9.599,4.614l-2.918,0.53l-0.636,2.174l-0.107-2.227c-1.172-0.118-2.74,0.111-3.394-1.697
					l-0.53,1.484c-1.029-1.064-1.07-3.667-3.234-2.97C110.841,107.368,110.537,106.077,112.187,106.588z"/>
			</g>

			<g id="leg2">
				<animateTransform
					attributeName="transform"
					begin="0.5s"
					dur="1s"
					type="rotate"
					from="20 85.297 107.268"
					to="-20 85.297 107.268"
					repeatCount="indefinite" />			
				<path class="leg2" id="path3789" d="
					M85.297,107.268c0,0.702-0.736,1.271-1.645,1.271s-1.645-0.569-1.645-1.271c0-0.703,0.736-1.273,1.645-1.273
					c0.854,0,1.566,0.507,1.639,1.166"/>
				<path class="leg2" id="path3793" fill="url(#path3793_1_)" stroke="#000000" stroke-width="0.5" d="
					M81.789,106.363c-3.199,1.538-5.671,3.368-9.6,4.613l2.917,0.531l0.637,2.174l0.105-2.227c1.173-0.118,2.742,0.111,3.395-1.697
					l0.53,1.484c1.031-1.063,1.072-3.666,3.235-2.969C83.135,107.145,83.437,105.854,81.789,106.363z"/>
				<g>	
					<path class="leg2" id="path3825" fill="url(#path3825_1_)" d="
						M72.864,113.963c0.432-0.514,0.603-1.086,0.382-1.278c-0.222-0.192-0.751,0.066-1.184,0.58c-0.432,0.513-0.603,1.085-0.381,1.278
						c0.208,0.182,0.693-0.038,1.115-0.504"/>					
					<path class="leg2" id="path3823" fill="url(#path3823_1_)" d="
						M74.323,112.779c0.642-0.343,1.034-0.828,0.879-1.085c-0.156-0.257-0.803-0.188-1.444,0.155c-0.641,0.342-1.035,0.828-0.879,1.084
						c0.146,0.242,0.731,0.197,1.346-0.104"/>
					<path class="leg2" id="path3827" fill="url(#path3827_1_)" d="
						M71.391,115.406c0.431-0.467,0.633-1.004,0.452-1.201c-0.18-0.195-0.676,0.022-1.105,0.489c-0.432,0.466-0.633,1.004-0.453,1.2
						c0.171,0.185,0.623,0.003,1.04-0.419"/>
					<path class="leg2" id="path3829" fill="url(#path3829_1_)" d="
						M70.402,116.536c0.364-0.521,0.487-1.085,0.275-1.26c-0.211-0.175-0.677,0.105-1.04,0.626c-0.363,0.52-0.486,1.084-0.275,1.26
						c0.199,0.164,0.626-0.075,0.983-0.549"/>
					<path class="leg2" id="path3831" fill="url(#path3831_1_)" d="M69.595,116.529
						c0.095,0.053,0.194,0.159,0.274,0.294c0.295,0.501,0.347,1.406,0.038,1.853c-0.511,0.743-0.855,2.735-0.922,2.662
						c-0.521-0.574,0.234-2.148-0.053-2.268c-0.621-0.254-0.59,1.309-0.732,0.93c-0.3-0.795,0.473-1.322,0.622-2.421
						c0.062-0.448,0.37-1.093,0.572-1.102C69.448,116.475,69.543,116.5,69.595,116.529L69.595,116.529z"/>
				</g>
			</g>

			<g id="leg4">
				<animateTransform
					attributeName="transform"
					begin="0.5s"
					dur="1s"
					type="rotate"
					from="-20 104.994 102.947"
					to="20 104.994 102.947"
					repeatCount="indefinite" />			
				<path class="leg4" id="path3658" d="
					M104.994,102.947c0.415,0.88,1.602,1.193,2.652,0.699c1.049-0.494,1.562-1.608,1.148-2.489c-0.415-0.881-1.602-1.194-2.652-0.7
					c-1.029,0.486-1.548,1.573-1.166,2.45"/>
				<path class="leg4" id="path3660" fill="url(#path3660_1_)" stroke="#000000" stroke-width="0.5" d="
					M108.62,101.939l-0.901-1.425l4.651-9.788l-0.169,1.5l0.713-0.037l1.144-0.225l2.081-0.507c-0.669,0.824-1.718,1.442-1.67,2.456
					h0.901L108.62,101.939z"/>
				<g>
					<animateTransform
						attributeName="transform"
						begin="0.5s"
						dur="1s"
						type="rotate"
						from="20 112.493 91.029"
						to="-30 112.493 91.029"
						repeatCount="indefinite" />					
					<path class="leg4" id="path3662" fill="url(#path3662_1_)" d="
						M112.493,91.029c-0.446,0.574-0.608,1.178-0.362,1.349c0.248,0.171,0.811-0.155,1.258-0.729c0.446-0.573,0.607-1.178,0.359-1.35
						c-0.232-0.16-0.746,0.119-1.186,0.644"/>
					<path class="leg4" id="path3664" fill="url(#path3664_1_)" d="
						M113.435,89.43c-0.186,0.645-0.109,1.237,0.172,1.323c0.28,0.085,0.658-0.367,0.844-1.012c0.187-0.645,0.109-1.236-0.171-1.323
						c-0.265-0.08-0.618,0.316-0.814,0.914"/>
					<path class="leg4" id="path3666" fill="url(#path3666_1_)" d="
						M113.928,88.094c-0.202,0.602-0.169,1.174,0.076,1.28s0.609-0.295,0.812-0.897c0.203-0.6,0.17-1.174-0.074-1.279
						c-0.232-0.1-0.57,0.25-0.779,0.805"/>
					<path class="leg4" id="path3668" fill="url(#path3668_1_)" d="
						M114.497,86.547c-0.12,0.623-0.003,1.188,0.261,1.262s0.576-0.372,0.695-0.996c0.121-0.623,0.004-1.188-0.26-1.262
						c-0.25-0.069-0.543,0.322-0.676,0.901"/>
					<path class="leg4" id="path3670" fill="url(#path3670_1_)" d="M115.182,86.363
						c-0.106-0.01-0.241-0.066-0.37-0.157c-0.474-0.337-0.89-1.144-0.79-1.676c0.165-0.887-0.329-2.847-0.24-2.807
						c0.709,0.312,0.661,2.058,0.972,2.048c0.67-0.02,0.006-1.434,0.289-1.146c0.598,0.605,0.107,1.402,0.418,2.465
						c0.126,0.434,0.107,1.149-0.074,1.239C115.34,86.353,115.242,86.369,115.182,86.363L115.182,86.363z"/>
				</g>
			</g>

			<g id="leg6">
				<animateTransform
					attributeName="transform"
					begin="0.5s"
					dur="1s"
					type="rotate"
					from="-30 110.032 119.814"
					to="30 110.032 119.814"
					repeatCount="indefinite" />
				<path id="path4034" d="
					M110.032,119.814c-0.726,0.768-0.216,2.428,1.14,3.707c1.355,1.281,3.041,1.695,3.766,0.928c0.727-0.768,0.216-2.428-1.139-3.707
					c-1.275-1.205-2.859-1.656-3.648-1.036"/>
				<g>	
					<animateTransform
						attributeName="transform"
						begin="0.5s"
						dur="1s"
						type="rotate"
						from="30 115.058 123.02"
						to="-40 115.058 123.02"
						repeatCount="indefinite" />									
					<path id="path4024" fill="url(#path4024_1_)" stroke="url(#path4024_2_)" stroke-width="0.5" d="
						M116.734,143.789c0.391,0.893,1.232,2.1,1.055,2.643c-0.061,0.199-0.374,0.393-0.506,0.506l0.46-0.23
						c-0.046,1.112-0.387,1.786-0.995,1.787c0.697-0.66,0.561-1.084,0.175-1.437c-0.229-0.05-0.486-0.208-0.755-0.521
						c-0.232-0.233,0.061-1.796,0.092-2.695L116.734,143.789z"/>
					<path id="path4026" fill="#696250" stroke="#000000" stroke-width="0.5" d="M116.205,141.449l1.087,2.324l-1.538,0.449v-2.625
						L116.205,141.449z"/>
					<path id="path4028" fill="#696250" stroke="#000000" stroke-width="0.5" d="M115.674,139.555l1.086,2.324l-1.536,0.45v-2.625
						L115.674,139.555z"/>
					<path id="path4030" fill="#696250" stroke="#000000" stroke-width="0.5" d="M115.529,137.817l0.772,2.448l-1.582,0.244l0.345-2.604
						L115.529,137.817z"/>
					<path id="path4032" fill="url(#path4032_1_)" stroke="#000000" stroke-width="0.5" d="M115.9,136.26l0.275,2.553l-1.602-0.074
						l0.854-2.482L115.9,136.26z"/>
					<path id="path4036" fill="url(#path4036_1_)" stroke="#000000" stroke-width="0.5" d="M115.058,123.02l1.349,12.976l0.825,1.875
						l-1.575-1.2l-1.349,0.225l-3.301,2.4l2.551-3.074v-1.351l-0.977,0.899l0.825-1.799v-0.9l-1.125,0.975l1.05-1.8l0.15-1.2
						l-1.275,1.125l1.275-2.85v-1.2l-0.975-0.075l1.051-1.125l-0.076-2.175L115.058,123.02z"/>
				</g>
			</g>	
			
			<g>					
				<g id="eyes">
					<path class="eye1" id="path3385" fill="url(#path3385_1_)" d="
						M94.493,93.02c0,0.806-0.674,1.459-1.506,1.459s-1.506-0.653-1.506-1.459s0.674-1.459,1.506-1.459c0.817,0,1.485,0.631,1.506,1.423" />
					<path class="eye2" id="path3391" fill="url(#path3391_1_)" d="
						M101.123,93.292c0,0.806-0.635,1.459-1.415,1.459c-0.782,0-1.417-0.653-1.417-1.459c0-0.807,0.635-1.459,1.417-1.459
						c0.768,0,1.396,0.632,1.415,1.423"/>
				</g>

				<g id="colorize">
					<path class="colorize" style="fill:inherit" id="path3297" stroke="#000000" stroke-width="0.5" d="M84.445,106.772l24.181,1.478
						c0.298,14.163,1.658,28.188-1.017,31.377c-1.01,2.881-3.15,5.088-6.771,6.414c-2.903,0.562-5.957,0.879-9.801-0.097
						c-4.15-0.979-5.872-4.148-7.215-7.679C81.213,130.621,84.099,117.409,84.445,106.772z"/>		
					<path class="colorize" style="fill:inherit" id="path3367" fill="#FF0000" d="M94.661,93.494c-0.274-2.089-0.574-1.319-1.321-3.072
						c-0.875-2.058-1.309-1.466,2.772-1.406c1.937,0.028,3.636,0.46,3.661,0.457c0.693-0.055,0.207,1.353-0.258,2.098
						c-0.844,1.354-1.507,1.779-0.622,2.916c0.278,0.358-1.688,0.101-4.498-0.037L94.661,93.494z"/>
					<path class="colorize" style="fill:inherit" id="path3363" fill="#FF0000" stroke="#000000" stroke-width="0.5" d="M94.244,96.988
						c-1.844-0.876-0.709-3.361-0.816-5.175c-1.025-2.017-2.908-4.587,0.984-6.038l4.277,0.035c3.392,1.321,3.034,3.404,1.042,5.679
						c-0.245,2.055,0.81,5.081-1.38,5.679L94.244,96.988z"/>
					<path class="colorize" style="fill:inherit" id="path2384" fill="#FF0000" stroke="#000000" stroke-width="0.5" d="M83.604,110.261
						c1.43-8.413,6.738-10.814,9.66-15.153c3.241-0.772,4.21-0.432,6.484,0.242c3.421,4.731,9.387,8.383,9.8,13.564
						c-3.29-0.199-6.261,0.091-8.083,0.871c-3.059-2.238-6.88-1.969-9.243,0.252C88.787,109.548,86.371,110.08,83.604,110.261z"/>
					<path class="colorize" style="fill:inherit" id="path3176" fill="#FF0000" stroke="#000000" stroke-width="0.5" d="M91.978,109.93l4.133,9.826
						l5.05-10.193C98.101,107.423,95.039,107.661,91.978,109.93z"/>
					<path class="colorize" style="fill:inherit" id="path3299" fill="#FF0000" stroke="#000000" stroke-width="0.5" d="M96.133,120.178
						l-3.895-9.676c-2.75-0.224-6.021,0.486-8.772,1.12c-1.172,15.331-5.468,34.769,11.097,34.984
						C95.523,144.21,95.891,122.132,96.133,120.178z"/>
					<path class="colorize" style="fill:inherit" id="path3311" fill="#FF0000" stroke="#000000" stroke-width="0.5" d="M109.978,110.848
						c-6.24-2.64-6.087-1.016-8.357-1.01l-5.436,10.178c-0.164,8.996-1.488,21.517,0.385,26.83
						C115.229,145.599,108.058,124.816,109.978,110.848z"/>
				</g>

				<g id="antennae">
					<path class="antenna1" id="path3469" d="M92.215,89.301c-1.142-0.336-3.535-0.323-3.42-1.008
						c0.12-0.896,2.266-1.99,1.644-2.863c-1.386-0.356-2.157,1.932-2.413,3.182c0.168,0.637,2.777,0.784,4.217,1.166L92.215,89.301z"/>
					<path class="antenna2" id="path3471" d="M100.802,89.601c1.143-0.335,3.535-0.323,3.42-1.008
						c-0.12-0.896-2.266-1.991-1.644-2.864c1.386-0.354,2.157,1.933,2.413,3.183c-0.168,0.637-2.777,0.784-4.217,1.167L100.802,89.601z"/>
				</g>			
			</g>

		</g>
		
	</defs>
	
	<use x="0" y="0" xlink:href="#beetle" style="fill:maroon"/>
</svg>
